<svg xmlns="http://www.w3.org/2000/svg" width="960" height="540" viewBox="0 0 960 540" version="1.1"><path d="M 457.171 241.750 C 499.891 241.894, 570.091 241.894, 613.171 241.750 C 656.252 241.606, 621.300 241.488, 535.500 241.488 C 449.700 241.488, 414.452 241.606, 457.171 241.750 M 251.986 305.750 L 238.500 319.500 252.250 306.014 C 265.023 293.486, 266.453 292, 265.736 292 C 265.591 292, 259.403 298.188, 251.986 305.750 M 303.479 376.250 L 294.500 385.500 303.750 376.521 C 312.341 368.181, 313.455 367, 312.729 367 C 312.580 367, 308.418 371.163, 303.479 376.250" stroke="none" fill="#f00404" fill-rule="evenodd"/><path d="M 340 155.049 C 278.608 158.173, 247.879 168.316, 211.500 197.461 C 206.550 201.427, 197.775 208.948, 192 214.173 C 178.660 226.245, 20 383.928, 20 385.115 C 20 385.620, 47.831 385.982, 84.750 385.957 L 149.500 385.914 164.657 371.207 C 172.993 363.118, 191.893 344.819, 206.657 330.543 C 221.421 316.266, 238.225 300.013, 244 294.424 C 277.557 261.950, 289.507 253.613, 311 247.675 C 332.777 241.660, 353.249 241.068, 541.004 241.030 L 692.509 241 735.254 198.246 C 758.764 174.731, 778 155.156, 778 154.746 C 778 153.783, 359.172 154.074, 340 155.049 M 687.248 269.252 C 623.862 332.640, 572 384.840, 572 385.252 C 572 385.663, 603.163 386, 641.252 386 L 710.503 386 825.752 270.748 C 889.138 207.360, 941 155.160, 941 154.748 C 941 154.337, 909.837 154, 871.748 154 L 802.497 154 687.248 269.252 M 353.905 255.383 C 353.682 255.581, 348.852 256.024, 343.171 256.369 C 330.002 257.167, 314.580 260.304, 305.016 264.132 C 291.716 269.455, 282.143 276.793, 259 299.408 C 220.856 336.683, 173 384.440, 173 385.231 C 173 385.654, 200.143 386, 233.319 386 L 293.638 386 304.069 375.430 C 321.308 357.963, 335.708 345.372, 341.683 342.543 C 354.801 336.332, 348.132 336.638, 478.546 336.261 L 597.592 335.917 638.046 295.453 L 678.500 254.989 516.405 255.006 C 427.253 255.016, 354.128 255.185, 353.905 255.383 M 769 358.500 C 769 360.794, 769.369 361, 773.469 361 L 777.938 361 778.219 373.250 L 778.500 385.500 781.250 385.816 L 784 386.133 784 373.566 L 784 361 788.500 361 C 792.633 361, 793 360.796, 793 358.500 L 793 356 781 356 L 769 356 769 358.500 M 796 371.066 L 796 386.133 798.750 385.816 L 801.500 385.500 801.500 375.831 C 801.500 370.513, 801.603 366.266, 801.729 366.393 C 801.855 366.521, 803.445 370.872, 805.262 376.063 C 808.225 384.526, 808.820 385.500, 811.026 385.500 C 813.227 385.500, 813.875 384.450, 817.198 375.500 L 820.910 365.500 820.955 375.816 L 821 386.133 823.750 385.816 L 826.500 385.500 826.500 371 L 826.500 356.500 822.555 356.500 L 818.609 356.500 814.942 367.149 C 811.367 377.527, 811.247 377.718, 810.228 374.649 C 809.652 372.917, 807.949 368.012, 806.443 363.750 L 803.704 356 799.852 356 L 796 356 796 371.066" stroke="none" fill="#ec0404" fill-rule="evenodd"/></svg>